# This file uses centimeters as units for non-parametric coordinates.

mtllib Stump.mtl
g default
v -565.055515 181.072729 -131.255371
v -622.770932 181.072729 -173.188285
v -694.110931 181.072729 -173.188285
v -751.827537 181.072729 -131.255371
v -773.872756 181.072729 -63.406446
v -751.827537 181.072729 4.442466
v -694.110931 181.072729 46.375392
v -622.770932 181.072729 46.375392
v -565.055515 181.072729 4.442454
v -543.008710 181.072729 -63.406459
v -578.860035 193.589962 -121.225469
v -628.044235 193.589962 -156.959552
v -658.441526 193.589962 -63.406459
v -688.838817 193.589962 -156.959552
v -738.022224 193.589962 -121.225444
v -756.808737 193.589962 -63.406446
v -738.022224 193.589962 -5.587461
v -688.838817 193.589962 30.146665
v -628.044235 193.589962 30.146653
v -578.860035 193.589962 -5.587461
v -560.072729 193.589962 -63.406459
v -565.055515 31.003210 -131.255371
v -622.770932 31.003210 -173.188285
v -694.110931 31.003210 -173.188285
v -751.827537 31.003210 -131.255371
v -773.872756 31.003210 -63.406446
v -751.827537 31.003210 4.442466
v -694.110931 31.003210 46.375392
v -622.770932 31.003210 46.375392
v -565.055515 31.003210 4.442454
v -543.008710 31.003210 -63.406459
v -565.055515 -21.658687 -131.255371
v -622.770932 -21.658687 -173.188285
v -694.110931 -21.658687 -173.188285
v -751.827537 -21.658687 -131.255371
v -773.872756 -21.658687 -63.406446
v -751.827537 -21.658687 4.442466
v -694.110931 -21.658687 46.375392
v -622.770932 -21.658687 46.375392
v -565.055515 -21.658687 4.442454
v -543.008710 -21.658687 -63.406459
v -755.545998 -12.775310 -119.810139
v -770.153899 -12.775310 -74.851641
v -770.153899 22.119857 -74.851641
v -755.545998 22.119857 -119.810139
v -826.524931 -4.564063 -142.251228
v -834.258316 -4.564063 -125.917366
v -834.258316 13.908623 -125.917366
v -826.524931 13.908623 -142.251228
v -622.770932 -21.658687 -63.406459
v -694.110931 -21.658687 -63.406446
v -561.570498 194.826889 -12.601711
v -550.600601 194.826889 -46.362293
v -559.091392 201.055272 -46.362293
v -568.439862 201.055272 -17.592449
v -554.862841 214.138751 -23.845714
v -543.892944 214.138751 -35.118291
v -552.383735 220.367134 -35.118291
v -561.732205 220.367134 -25.512101
vt 0.375000 0.602192
vt 0.400000 0.602192
vt 0.400000 0.688440
vt 0.375000 0.688440
vt 0.425000 0.602192
vt 0.425000 0.688440
vt 0.450000 0.602192
vt 0.450000 0.688440
vt 0.475000 0.602192
vt 0.475000 0.688440
vt 0.500000 0.602192
vt 0.500000 0.688440
vt 0.525000 0.602192
vt 0.525000 0.688440
vt 0.550000 0.602192
vt 0.550000 0.688440
vt 0.575000 0.602192
vt 0.575000 0.688440
vt 0.600000 0.602192
vt 0.600000 0.688440
vt 0.625000 0.602192
vt 0.625000 0.688440
vt 0.626409 0.935591
vt 0.548284 0.992353
vt 0.500000 0.837500
vt 0.451716 0.992353
vt 0.373591 0.935591
vt 0.343750 0.843750
vt 0.373591 0.751909
vt 0.451716 0.695147
vt 0.548284 0.695147
vt 0.626409 0.751909
vt 0.656250 0.843750
vt 0.626409 0.935591
vt 0.548284 0.992353
vt 0.451716 0.992353
vt 0.373591 0.935591
vt 0.343750 0.843750
vt 0.373591 0.751909
vt 0.451716 0.695147
vt 0.548284 0.695147
vt 0.626409 0.751909
vt 0.626409 0.751909
vt 0.656250 0.843750
vt 0.656250 0.843750
vt 0.626409 0.751909
vt 0.656250 0.843750
vt 0.375000 0.571927
vt 0.400000 0.571927
vt 0.425000 0.571927
vt 0.450000 0.571927
vt 0.450000 0.571927
vt 0.475000 0.571927
vt 0.475000 0.602192
vt 0.450000 0.602192
vt 0.475000 0.571927
vt 0.500000 0.571927
vt 0.525000 0.571927
vt 0.550000 0.571927
vt 0.575000 0.571927
vt 0.600000 0.571927
vt 0.625000 0.571927
vt 0.475000 0.571927
vt 0.450000 0.571927
vt 0.475000 0.602192
vt 0.450000 0.602192
vt 0.475000 0.571927
vt 0.475000 0.571927
vt 0.656250 0.843750
vt 0.626409 0.751909
vt 0.656250 0.843750
vt 0.626409 0.751909
vn 0.587785 0.000000 -0.809017
vn 0.587785 0.000000 -0.809017
vn 0.587785 0.000000 -0.809017
vn 0.587785 0.000000 -0.809017
vn 0.000000 0.000000 -1.000000
vn 0.000000 0.000000 -1.000000
vn 0.000000 0.000000 -1.000000
vn 0.000000 0.000000 -1.000000
vn -0.587779 0.000000 -0.809021
vn -0.587779 0.000000 -0.809021
vn -0.587779 0.000000 -0.809021
vn -0.587779 0.000000 -0.809021
vn -0.951057 0.000000 -0.309017
vn -0.951057 0.000000 -0.309017
vn -0.951057 0.000000 -0.309017
vn -0.951057 0.000000 -0.309017
vn -0.951057 0.000000 0.309017
vn -0.951057 0.000000 0.309017
vn -0.951057 0.000000 0.309017
vn -0.951057 0.000000 0.309017
vn -0.587779 0.000000 0.809021
vn -0.587779 0.000000 0.809021
vn -0.587779 0.000000 0.809021
vn -0.587779 0.000000 0.809021
vn 0.000000 0.000000 1.000000
vn 0.000000 0.000000 1.000000
vn 0.000000 0.000000 1.000000
vn 0.000000 0.000000 1.000000
vn 0.587785 0.000000 0.809017
vn 0.587785 0.000000 0.809017
vn 0.587785 0.000000 0.809017
vn 0.587785 0.000000 0.809017
vn 0.951051 0.000000 0.309033
vn 0.951051 0.000000 0.309033
vn 0.951051 0.000000 0.309033
vn 0.951051 0.000000 0.309033
vn 0.951051 0.000000 -0.309033
vn 0.951051 0.000000 -0.309033
vn 0.951051 0.000000 -0.309033
vn 0.951051 0.000000 -0.309033
vn 0.000000 1.000000 0.000000
vn 0.000000 1.000000 0.000000
vn 0.000000 1.000000 0.000000
vn 0.000000 1.000000 0.000000
vn 0.000000 1.000000 0.000000
vn 0.000000 1.000000 0.000000
vn 0.000000 1.000000 0.000000
vn 0.000000 1.000000 0.000000
vn 0.000000 1.000000 0.000000
vn 0.000000 1.000000 0.000000
vn 0.000000 1.000000 0.000000
vn 0.000000 1.000000 0.000000
vn 0.000000 1.000000 0.000000
vn 0.000000 1.000000 0.000000
vn 0.000000 1.000000 0.000000
vn 0.000000 1.000000 0.000000
vn 0.000000 1.000000 0.000000
vn 0.000000 1.000000 0.000000
vn 0.000000 1.000000 0.000000
vn 0.000000 1.000000 0.000000
vn 0.000000 1.000000 0.000000
vn 0.000000 1.000000 0.000000
vn 0.000000 1.000000 0.000000
vn 0.000000 1.000000 0.000000
vn 0.000000 1.000000 0.000000
vn 0.000000 1.000000 0.000000
vn 0.000000 1.000000 0.000000
vn 0.000000 1.000000 0.000000
vn 0.000000 1.000000 0.000000
vn 0.000000 1.000000 0.000000
vn 0.358985 0.791829 -0.494102
vn 0.358985 0.791829 -0.494102
vn 0.358985 0.791829 -0.494102
vn 0.358985 0.791829 -0.494102
vn 0.000000 0.791831 -0.610740
vn 0.000000 0.791831 -0.610740
vn 0.000000 0.791831 -0.610740
vn 0.000000 0.791831 -0.610740
vn -0.358986 0.791826 -0.494105
vn -0.358986 0.791826 -0.494105
vn -0.358986 0.791826 -0.494105
vn -0.358986 0.791826 -0.494105
vn -0.580849 0.791831 -0.188729
vn -0.580849 0.791831 -0.188729
vn -0.580849 0.791831 -0.188729
vn -0.580849 0.791831 -0.188729
vn -0.580848 0.791831 0.188729
vn -0.580848 0.791831 0.188729
vn -0.580848 0.791831 0.188729
vn -0.580848 0.791831 0.188729
vn -0.358986 0.791826 0.494106
vn -0.358986 0.791826 0.494106
vn -0.358986 0.791826 0.494106
vn -0.358986 0.791826 0.494106
vn 0.000000 0.791831 0.610741
vn 0.000000 0.791831 0.610741
vn 0.000000 0.791831 0.610741
vn 0.000000 0.791831 0.610741
vn 0.358985 0.791829 0.494102
vn 0.358985 0.791829 0.494102
vn 0.358985 0.791829 0.494102
vn 0.358985 0.791829 0.494102
vn 0.512615 0.698832 0.498858
vn 0.512615 0.698832 0.498858
vn 0.512615 0.698832 0.498858
vn 0.512615 0.698832 0.498858
vn 0.580846 0.791831 -0.188736
vn 0.580846 0.791831 -0.188736
vn 0.580846 0.791831 -0.188736
vn 0.580846 0.791831 -0.188736
vn 0.587785 0.000000 -0.809017
vn 0.587785 0.000000 -0.809017
vn 0.587785 0.000000 -0.809017
vn 0.587785 0.000000 -0.809017
vn 0.000000 0.000000 -1.000000
vn 0.000000 0.000000 -1.000000
vn 0.000000 0.000000 -1.000000
vn 0.000000 0.000000 -1.000000
vn -0.587779 0.000000 -0.809021
vn -0.587779 0.000000 -0.809021
vn -0.587779 0.000000 -0.809021
vn -0.587779 0.000000 -0.809021
vn -0.903822 0.000000 -0.427909
vn -0.903822 0.000000 -0.427909
vn -0.903822 0.000000 -0.427909
vn -0.903822 0.000000 -0.427909
vn -0.951057 0.000000 0.309017
vn -0.951057 0.000000 0.309017
vn -0.951057 0.000000 0.309017
vn -0.951057 0.000000 0.309017
vn -0.587779 0.000000 0.809021
vn -0.587779 0.000000 0.809021
vn -0.587779 0.000000 0.809021
vn -0.587779 0.000000 0.809021
vn 0.000000 0.000000 1.000000
vn 0.000000 0.000000 1.000000
vn 0.000000 0.000000 1.000000
vn 0.000000 0.000000 1.000000
vn 0.587785 0.000000 0.809017
vn 0.587785 0.000000 0.809017
vn 0.587785 0.000000 0.809017
vn 0.587785 0.000000 0.809017
vn 0.951051 0.000000 0.309033
vn 0.951051 0.000000 0.309033
vn 0.951051 0.000000 0.309033
vn 0.951051 0.000000 0.309033
vn 0.951051 0.000000 -0.309033
vn 0.951051 0.000000 -0.309033
vn 0.951051 0.000000 -0.309033
vn 0.951051 0.000000 -0.309033
vn -0.951057 0.000024 -0.309015
vn -0.951057 0.000024 -0.309015
vn -0.951057 0.000024 -0.309015
vn -0.951057 0.000024 -0.309015
vn -0.951049 0.000000 -0.309040
vn -0.951049 0.000000 -0.309040
vn -0.951049 0.000000 -0.309040
vn -0.951049 0.000000 -0.309040
vn -0.951057 -0.000024 -0.309016
vn -0.951057 -0.000024 -0.309016
vn -0.951057 -0.000024 -0.309016
vn -0.951057 -0.000024 -0.309016
vn -0.951060 0.000000 -0.309006
vn -0.951060 0.000000 -0.309006
vn -0.951060 0.000000 -0.309006
vn -0.951060 0.000000 -0.309006
vn -0.100864 -0.994221 -0.036765
vn -0.100864 -0.994221 -0.036765
vn -0.100864 -0.994221 -0.036765
vn -0.100864 -0.994221 -0.036765
vn -0.623072 0.000000 0.782164
vn -0.623072 0.000000 0.782164
vn -0.623072 0.000000 0.782164
vn -0.623072 0.000000 0.782164
vn -0.100864 0.994221 -0.036765
vn -0.100864 0.994221 -0.036765
vn -0.100864 0.994221 -0.036765
vn -0.100864 0.994221 -0.036765
vn 0.301457 0.000000 -0.953480
vn 0.301457 0.000000 -0.953480
vn 0.301457 0.000000 -0.953480
vn 0.301457 0.000000 -0.953480
vn 0.000000 -1.000000 0.000000
vn 0.000000 -1.000000 0.000000
vn 0.000000 -1.000000 0.000000
vn 0.000000 -1.000000 0.000000
vn 0.000000 -1.000000 0.000000
vn 0.000000 -1.000000 0.000000
vn 0.000000 -1.000000 0.000000
vn 0.000000 -1.000000 0.000000
vn 0.000000 -1.000000 0.000000
vn 0.000000 -1.000000 0.000000
vn 0.000000 -1.000000 0.000000
vn 0.000000 -1.000000 0.000000
vn 0.000000 -1.000000 0.000000
vn 0.000000 -1.000000 0.000000
vn 0.000000 -1.000000 0.000000
vn 0.000000 -1.000000 0.000000
vn 0.000000 -1.000000 0.000000
vn 0.000000 -1.000000 0.000000
vn 0.000000 -1.000000 0.000000
vn 0.000000 -1.000000 0.000000
vn 0.000000 -1.000000 0.000000
vn 0.000000 -1.000000 0.000000
vn 0.000000 -1.000000 0.000000
vn 0.000000 -1.000000 0.000000
vn 0.941606 0.140583 0.305964
vn 0.941606 0.140583 0.305964
vn 0.941606 0.140583 0.305964
vn 0.941606 0.140583 0.305964
vn 0.551558 0.751923 -0.361103
vn 0.551558 0.751923 -0.361103
vn 0.551558 0.751923 -0.361103
vn 0.551558 0.751923 -0.361104
vn -0.731617 0.638924 -0.237724
vn -0.731617 0.638924 -0.237724
vn -0.731617 0.638924 -0.237724
vn -0.731617 0.638924 -0.237724
vn 0.206550 0.740368 0.639682
vn 0.206550 0.740368 0.639682
vn 0.206550 0.740368 0.639682
vn 0.206550 0.740368 0.639682
vn 0.858123 -0.298054 0.418078
vn 0.858123 -0.298054 0.418078
vn 0.858123 -0.298054 0.418078
vn 0.858123 -0.298054 0.418078
vn 0.295007 0.402175 -0.866733
vn 0.295007 0.402175 -0.866733
vn 0.295007 0.402175 -0.866733
vn 0.295007 0.402175 -0.866733
vn -0.848529 0.330303 -0.413400
vn -0.848529 0.330303 -0.413400
vn -0.848529 0.330302 -0.413400
vn -0.848529 0.330303 -0.413400
vn -0.023538 0.450887 0.892271
vn -0.023538 0.450887 0.892271
vn -0.023538 0.450887 0.892271
vn -0.023538 0.450887 0.892271
s off
g stump_pCylinder6
usemtl stump_initialShadingGroup1
f 22/1/1 23/2/2 2/3/3 1/4/4
f 23/2/5 24/5/6 3/6/7 2/3/8
f 24/5/9 25/7/10 4/8/11 3/6/12
f 25/7/13 26/9/14 5/10/15 4/8/16
f 26/9/17 27/11/18 6/12/19 5/10/20
f 27/11/21 28/13/22 7/14/23 6/12/24
f 28/13/25 29/15/26 8/16/27 7/14/28
f 29/15/29 30/17/30 9/18/31 8/16/32
f 30/17/33 31/19/34 10/20/35 9/18/36
f 31/19/37 22/21/38 1/22/39 10/20/40
f 11/23/41 12/24/42 13/25/43
f 12/24/44 14/26/45 13/25/46
f 14/26/47 15/27/48 13/25/49
f 15/27/50 16/28/51 13/25/52
f 16/28/53 17/29/54 13/25/55
f 17/29/56 18/30/57 13/25/58
f 18/30/59 19/31/60 13/25/61
f 19/31/62 20/32/63 13/25/64
f 20/32/65 21/33/66 13/25/67
f 21/33/68 11/23/69 13/25/70
f 1/34/71 2/35/72 12/24/73 11/23/74
f 2/35/75 3/36/76 14/26/77 12/24/78
f 3/36/79 4/37/80 15/27/81 14/26/82
f 4/37/83 5/38/84 16/28/85 15/27/86
f 5/38/87 6/39/88 17/29/89 16/28/90
f 6/39/91 7/40/92 18/30/93 17/29/94
f 7/40/95 8/41/96 19/31/97 18/30/98
f 8/41/99 9/42/100 20/32/101 19/31/102
f 56/43/103 57/44/104 58/45/105 59/46/106
f 10/47/107 1/34/108 11/23/109 21/33/110
f 32/48/111 33/49/112 23/2/113 22/1/114
f 33/49/115 34/50/116 24/5/117 23/2/118
f 34/50/119 35/51/120 25/7/121 24/5/122
f 46/52/123 47/53/124 48/54/125 49/55/126
f 36/56/127 37/57/128 27/11/129 26/9/130
f 37/57/131 38/58/132 28/13/133 27/11/134
f 38/58/135 39/59/136 29/15/137 28/13/138
f 39/59/139 40/60/140 30/17/141 29/15/142
f 40/60/143 41/61/144 31/19/145 30/17/146
f 41/61/147 32/62/148 22/21/149 31/19/150
f 35/51/151 36/56/152 43/63/153 42/64/154
f 36/56/155 26/9/156 44/65/157 43/63/158
f 26/9/159 25/7/160 45/66/161 44/65/162
f 25/7/163 35/51/164 42/64/165 45/66/166
f 42/64/167 43/63/168 47/53/169 46/52/170
f 43/63/171 44/65/172 48/54/173 47/53/174
f 44/65/175 45/66/176 49/55/177 48/54/178
f 45/66/179 42/64/180 46/52/181 49/55/182
f 33/49/183 32/62/184 41/61/185 50/67/186
f 33/49/187 50/67/188 51/68/189 34/50/190
f 34/50/191 51/68/192 36/56/193 35/51/194
f 50/67/195 41/61/196 40/60/197 39/59/198
f 51/68/199 50/67/200 39/59/201 38/58/202
f 36/56/203 51/68/204 38/58/205 37/57/206
f 9/42/207 10/47/208 53/69/209 52/70/210
f 10/47/211 21/33/212 54/71/213 53/69/214
f 21/33/215 20/32/216 55/72/217 54/71/218
f 20/32/219 9/42/220 52/70/221 55/72/222
f 52/70/223 53/69/224 57/44/225 56/43/226
f 53/69/227 54/71/228 58/45/229 57/44/230
f 54/71/231 55/72/232 59/46/233 58/45/234
f 55/72/235 52/70/236 56/43/237 59/46/238
