# This file uses centimeters as units for non-parametric coordinates.

mtllib Tree.mtl
g default
v -245.258668 -327.065755 -122.803224
v -302.974481 -327.065755 -164.736162
v -374.314083 -327.065755 -164.736137
v -432.030690 -327.065755 -122.803224
v -454.076306 -327.065755 -54.954299
v -432.030690 -327.065755 12.894614
v -374.314083 -327.065755 54.827539
v -302.974481 -327.065755 54.827527
v -245.258668 -327.065755 12.894601
v -223.211863 -327.065755 -54.954311
v -245.258668 327.065755 -122.803224
v -302.974481 327.065755 -164.736162
v -374.314083 327.065755 -164.736137
v -432.030690 327.065755 -122.803224
v -454.076306 327.065755 -54.954299
v -432.030690 327.065755 12.894614
v -374.314083 327.065755 54.827539
v -302.974481 327.065755 54.827527
v -245.258668 327.065755 12.894601
v -223.211863 327.065755 -54.954311
v -259.063188 -339.582988 -112.773322
v -308.247388 -339.582988 -148.507429
v -338.644679 -339.582988 -54.954311
v -369.041970 -339.582988 -148.507429
v -418.225773 -339.582988 -112.773297
v -437.012286 -339.582988 -54.954299
v -418.225773 -339.582988 2.864687
v -369.041970 -339.582988 38.598812
v -308.247388 -339.582988 38.598800
v -259.063188 -339.582988 2.864687
v -240.276279 -339.582988 -54.954311
v -259.063188 339.582988 -112.773322
v -308.247388 339.582988 -148.507429
v -338.644679 339.582988 -54.954311
v -369.041970 339.582988 -148.507429
v -418.225773 339.582988 -112.773297
v -437.012286 339.582988 -54.954299
v -418.225773 339.582988 2.864687
v -369.041970 339.582988 38.598812
v -308.247388 339.582988 38.598800
v -259.063188 339.582988 2.864687
v -240.276279 339.582988 -54.954311
v -245.258668 176.996235 -122.803224
v -302.974481 176.996235 -164.736162
v -374.314083 176.996235 -164.736137
v -432.030690 176.996235 -122.803224
v -454.076306 176.996235 -54.954299
v -432.030690 176.996235 12.894614
v -374.314083 176.996235 54.827539
v -302.974481 176.996235 54.827527
v -245.258668 176.996235 12.894601
v -223.211863 176.996235 -54.954311
v -245.258668 124.334338 -122.803224
v -302.974481 124.334338 -164.736162
v -374.314083 124.334338 -164.736137
v -432.030690 124.334338 -122.803224
v -454.076306 124.334338 -54.954299
v -432.030690 124.334338 12.894614
v -374.314083 124.334338 54.827539
v -302.974481 124.334338 54.827527
v -245.258668 124.334338 12.894601
v -223.211863 124.334338 -54.954311
v -435.749547 133.217703 -111.357992
v -450.357052 133.217703 -66.399494
v -450.357052 168.112883 -66.399494
v -435.749547 168.112883 -111.357992
v -506.728480 141.428962 -133.799081
v -514.461865 141.428962 -117.465219
v -514.461865 159.901648 -117.465219
v -506.728480 159.901648 -133.799081
v -245.258668 -194.985176 -122.803224
v -302.974481 -194.985176 -164.736162
v -374.314083 -194.985176 -164.736137
v -432.030690 -194.985176 -122.803224
v -454.076306 -194.985176 -54.954299
v -432.030690 -194.985176 12.894614
v -374.314083 -194.985176 54.827539
v -302.974481 -194.985176 54.827539
v -245.258668 -194.985176 12.894601
v -223.211863 -194.985176 -54.954311
v -245.258668 -270.650482 -122.803224
v -302.974481 -270.650482 -164.736162
v -374.314083 -270.650482 -164.736137
v -432.030690 -270.650482 -122.803224
v -454.076306 -270.650482 -54.954299
v -432.030690 -270.650482 12.894614
v -374.314083 -270.650482 54.827539
v -302.974481 -270.650482 54.827539
v -245.258668 -270.650482 12.894601
v -223.211863 -270.650482 -54.954311
v -253.641257 -250.344674 -153.740875
v -280.379538 -250.344674 -173.167229
v -280.379538 -215.291008 -173.167229
v -253.641257 -215.291008 -153.740875
v -258.028344 -238.479347 -186.869419
v -266.664987 -238.479347 -193.144495
v -266.664987 -227.156336 -193.144495
v -258.028344 -227.156336 -186.869419
vt 0.375000 0.602192
vt 0.400000 0.602192
vt 0.400000 0.688440
vt 0.375000 0.688440
vt 0.425000 0.602192
vt 0.425000 0.688440
vt 0.450000 0.602192
vt 0.450000 0.688440
vt 0.475000 0.602192
vt 0.475000 0.688440
vt 0.500000 0.602192
vt 0.500000 0.688440
vt 0.525000 0.602192
vt 0.525000 0.688440
vt 0.550000 0.602192
vt 0.550000 0.688440
vt 0.575000 0.602192
vt 0.575000 0.688440
vt 0.600000 0.602192
vt 0.600000 0.688440
vt 0.625000 0.602192
vt 0.625000 0.688440
vt 0.548284 0.007647
vt 0.626409 0.064409
vt 0.500000 0.150000
vt 0.451716 0.007647
vt 0.373591 0.064409
vt 0.343750 0.156250
vt 0.373591 0.248091
vt 0.451716 0.304853
vt 0.548284 0.304853
vt 0.626409 0.248091
vt 0.656250 0.156250
vt 0.626409 0.935591
vt 0.548284 0.992353
vt 0.500000 0.837500
vt 0.451716 0.992353
vt 0.373591 0.935591
vt 0.343750 0.843750
vt 0.373591 0.751909
vt 0.451716 0.695147
vt 0.548284 0.695147
vt 0.626409 0.751909
vt 0.656250 0.843750
vt 0.548284 0.007647
vt 0.626409 0.064409
vt 0.451716 0.007647
vt 0.373591 0.064409
vt 0.343750 0.156250
vt 0.373591 0.248091
vt 0.451716 0.304853
vt 0.548284 0.304853
vt 0.626409 0.248091
vt 0.656250 0.156250
vt 0.626409 0.935591
vt 0.548284 0.992353
vt 0.451716 0.992353
vt 0.373591 0.935591
vt 0.343750 0.843750
vt 0.373591 0.751909
vt 0.451716 0.695147
vt 0.548284 0.695147
vt 0.626409 0.751909
vt 0.656250 0.843750
vt 0.375000 0.571927
vt 0.400000 0.571927
vt 0.425000 0.571927
vt 0.450000 0.571927
vt 0.450000 0.571927
vt 0.475000 0.571927
vt 0.475000 0.602192
vt 0.450000 0.602192
vt 0.475000 0.571927
vt 0.500000 0.571927
vt 0.525000 0.571927
vt 0.550000 0.571927
vt 0.575000 0.571927
vt 0.600000 0.571927
vt 0.625000 0.571927
vt 0.375000 0.388409
vt 0.400000 0.388409
vt 0.425000 0.388409
vt 0.450000 0.388409
vt 0.475000 0.388409
vt 0.500000 0.388409
vt 0.525000 0.388409
vt 0.550000 0.388409
vt 0.575000 0.388409
vt 0.600000 0.388409
vt 0.625000 0.388409
vt 0.475000 0.571927
vt 0.450000 0.571927
vt 0.475000 0.602192
vt 0.450000 0.602192
vt 0.375000 0.344923
vt 0.400000 0.344923
vt 0.400000 0.388409
vt 0.375000 0.388409
vt 0.400000 0.344923
vt 0.425000 0.344923
vt 0.450000 0.344923
vt 0.475000 0.344923
vt 0.500000 0.344923
vt 0.525000 0.344923
vt 0.550000 0.344923
vt 0.575000 0.344923
vt 0.600000 0.344923
vt 0.625000 0.344923
vt 0.375000 0.312500
vt 0.400000 0.312500
vt 0.375000 0.344923
vt 0.425000 0.312500
vt 0.450000 0.312500
vt 0.475000 0.312500
vt 0.500000 0.312500
vt 0.525000 0.312500
vt 0.550000 0.312500
vt 0.575000 0.312500
vt 0.600000 0.312500
vt 0.625000 0.312500
vt 0.400000 0.344923
vt 0.375000 0.344923
vt 0.400000 0.388409
vt 0.375000 0.388409
vn 0.587785 0.000000 -0.809017
vn 0.587785 0.000000 -0.809017
vn 0.587785 0.000000 -0.809017
vn 0.587785 0.000000 -0.809017
vn 0.000000 0.000000 -1.000000
vn 0.000000 0.000000 -1.000000
vn 0.000000 0.000000 -1.000000
vn 0.000000 0.000000 -1.000000
vn -0.587779 0.000000 -0.809021
vn -0.587779 0.000000 -0.809021
vn -0.587779 0.000000 -0.809021
vn -0.587779 0.000000 -0.809021
vn -0.951057 0.000000 -0.309017
vn -0.951057 0.000000 -0.309017
vn -0.951057 0.000000 -0.309017
vn -0.951057 0.000000 -0.309017
vn -0.951057 0.000000 0.309017
vn -0.951057 0.000000 0.309017
vn -0.951057 0.000000 0.309017
vn -0.951057 0.000000 0.309017
vn -0.587779 0.000000 0.809021
vn -0.587779 0.000000 0.809021
vn -0.587779 0.000000 0.809021
vn -0.587779 0.000000 0.809021
vn 0.000000 0.000000 1.000000
vn 0.000000 0.000000 1.000000
vn 0.000000 0.000000 1.000000
vn 0.000000 0.000000 1.000000
vn 0.587785 0.000000 0.809017
vn 0.587785 0.000000 0.809017
vn 0.587785 0.000000 0.809017
vn 0.587785 0.000000 0.809017
vn 0.951051 0.000000 0.309033
vn 0.951051 0.000000 0.309033
vn 0.951051 0.000000 0.309033
vn 0.951051 0.000000 0.309033
vn 0.951051 0.000000 -0.309033
vn 0.951051 0.000000 -0.309033
vn 0.951051 0.000000 -0.309033
vn 0.951051 0.000000 -0.309033
vn 0.000000 -1.000000 0.000000
vn 0.000000 -1.000000 0.000000
vn 0.000000 -1.000000 0.000000
vn 0.000000 -1.000000 0.000000
vn 0.000000 -1.000000 0.000000
vn 0.000000 -1.000000 0.000000
vn 0.000000 -1.000000 0.000000
vn 0.000000 -1.000000 0.000000
vn 0.000000 -1.000000 0.000000
vn 0.000000 -1.000000 0.000000
vn 0.000000 -1.000000 0.000000
vn 0.000000 -1.000000 0.000000
vn 0.000000 -1.000000 0.000000
vn 0.000000 -1.000000 0.000000
vn 0.000000 -1.000000 0.000000
vn 0.000000 -1.000000 0.000000
vn 0.000000 -1.000000 0.000000
vn 0.000000 -1.000000 0.000000
vn 0.000000 -1.000000 0.000000
vn 0.000000 -1.000000 0.000000
vn 0.000000 -1.000000 0.000000
vn 0.000000 -1.000000 0.000000
vn 0.000000 -1.000000 0.000000
vn 0.000000 -1.000000 0.000000
vn 0.000000 -1.000000 0.000000
vn 0.000000 -1.000000 0.000000
vn 0.000000 -1.000000 0.000000
vn 0.000000 -1.000000 0.000000
vn 0.000000 -1.000000 0.000000
vn 0.000000 -1.000000 0.000000
vn 0.000000 1.000000 0.000000
vn 0.000000 1.000000 0.000000
vn 0.000000 1.000000 0.000000
vn 0.000000 1.000000 0.000000
vn 0.000000 1.000000 0.000000
vn 0.000000 1.000000 0.000000
vn 0.000000 1.000000 0.000000
vn 0.000000 1.000000 0.000000
vn 0.000000 1.000000 0.000000
vn 0.000000 1.000000 0.000000
vn 0.000000 1.000000 0.000000
vn 0.000000 1.000000 0.000000
vn 0.000000 1.000000 0.000000
vn 0.000000 1.000000 0.000000
vn 0.000000 1.000000 0.000000
vn 0.000000 1.000000 0.000000
vn 0.000000 1.000000 0.000000
vn 0.000000 1.000000 0.000000
vn 0.000000 1.000000 0.000000
vn 0.000000 1.000000 0.000000
vn 0.000000 1.000000 0.000000
vn 0.000000 1.000000 0.000000
vn 0.000000 1.000000 0.000000
vn 0.000000 1.000000 0.000000
vn 0.000000 1.000000 0.000000
vn 0.000000 1.000000 0.000000
vn 0.000000 1.000000 0.000000
vn 0.000000 1.000000 0.000000
vn 0.000000 1.000000 0.000000
vn 0.000000 1.000000 0.000000
vn 0.358985 -0.791829 -0.494102
vn 0.358985 -0.791829 -0.494102
vn 0.358985 -0.791829 -0.494102
vn 0.358985 -0.791829 -0.494102
vn 0.000000 -0.791831 -0.610741
vn 0.000000 -0.791831 -0.610741
vn 0.000000 -0.791831 -0.610741
vn 0.000000 -0.791831 -0.610741
vn -0.358986 -0.791826 -0.494106
vn -0.358986 -0.791826 -0.494106
vn -0.358986 -0.791826 -0.494106
vn -0.358986 -0.791826 -0.494106
vn -0.580849 -0.791831 -0.188729
vn -0.580849 -0.791831 -0.188729
vn -0.580849 -0.791831 -0.188729
vn -0.580849 -0.791831 -0.188729
vn -0.580848 -0.791831 0.188729
vn -0.580848 -0.791831 0.188729
vn -0.580848 -0.791831 0.188729
vn -0.580848 -0.791831 0.188729
vn -0.358986 -0.791826 0.494105
vn -0.358986 -0.791827 0.494105
vn -0.358986 -0.791826 0.494105
vn -0.358986 -0.791827 0.494105
vn 0.000000 -0.791831 0.610740
vn 0.000000 -0.791831 0.610740
vn 0.000000 -0.791831 0.610740
vn 0.000000 -0.791831 0.610740
vn 0.358985 -0.791829 0.494102
vn 0.358985 -0.791829 0.494102
vn 0.358985 -0.791829 0.494102
vn 0.358985 -0.791829 0.494102
vn 0.580846 -0.791831 0.188736
vn 0.580846 -0.791831 0.188736
vn 0.580846 -0.791831 0.188736
vn 0.580846 -0.791831 0.188736
vn 0.580846 -0.791831 -0.188736
vn 0.580846 -0.791831 -0.188736
vn 0.580846 -0.791831 -0.188736
vn 0.580846 -0.791831 -0.188736
vn 0.358985 0.791829 -0.494102
vn 0.358985 0.791829 -0.494102
vn 0.358985 0.791829 -0.494102
vn 0.358985 0.791829 -0.494102
vn 0.000000 0.791831 -0.610740
vn 0.000000 0.791831 -0.610740
vn 0.000000 0.791831 -0.610740
vn 0.000000 0.791831 -0.610740
vn -0.358986 0.791827 -0.494105
vn -0.358986 0.791827 -0.494105
vn -0.358986 0.791827 -0.494105
vn -0.358986 0.791827 -0.494105
vn -0.580849 0.791831 -0.188729
vn -0.580849 0.791831 -0.188729
vn -0.580849 0.791831 -0.188729
vn -0.580849 0.791831 -0.188729
vn -0.580848 0.791831 0.188729
vn -0.580848 0.791831 0.188729
vn -0.580848 0.791831 0.188729
vn -0.580848 0.791831 0.188729
vn -0.358986 0.791826 0.494106
vn -0.358986 0.791826 0.494106
vn -0.358986 0.791826 0.494106
vn -0.358986 0.791826 0.494106
vn 0.000000 0.791831 0.610741
vn 0.000000 0.791831 0.610741
vn 0.000000 0.791831 0.610741
vn 0.000000 0.791831 0.610741
vn 0.358985 0.791829 0.494102
vn 0.358985 0.791829 0.494102
vn 0.358985 0.791829 0.494102
vn 0.358985 0.791829 0.494102
vn 0.580846 0.791831 0.188736
vn 0.580846 0.791831 0.188736
vn 0.580846 0.791831 0.188736
vn 0.580846 0.791831 0.188736
vn 0.580846 0.791831 -0.188736
vn 0.580846 0.791831 -0.188736
vn 0.580846 0.791831 -0.188736
vn 0.580846 0.791831 -0.188736
vn 0.587785 0.000000 -0.809017
vn 0.587785 0.000000 -0.809017
vn 0.587785 0.000000 -0.809017
vn 0.587785 0.000000 -0.809017
vn 0.000000 0.000000 -1.000000
vn 0.000000 0.000000 -1.000000
vn 0.000000 0.000000 -1.000000
vn 0.000000 0.000000 -1.000000
vn -0.587779 0.000000 -0.809021
vn -0.587779 0.000000 -0.809021
vn -0.587779 0.000000 -0.809021
vn -0.587779 0.000000 -0.809021
vn -0.903822 0.000000 -0.427909
vn -0.903822 0.000000 -0.427909
vn -0.903822 0.000000 -0.427909
vn -0.903822 0.000000 -0.427909
vn -0.951057 0.000000 0.309017
vn -0.951057 0.000000 0.309017
vn -0.951057 0.000000 0.309017
vn -0.951057 0.000000 0.309017
vn -0.587779 0.000000 0.809021
vn -0.587779 0.000000 0.809021
vn -0.587779 0.000000 0.809021
vn -0.587779 0.000000 0.809021
vn 0.000000 0.000000 1.000000
vn 0.000000 0.000000 1.000000
vn 0.000000 0.000000 1.000000
vn 0.000000 0.000000 1.000000
vn 0.587785 0.000000 0.809017
vn 0.587785 0.000000 0.809017
vn 0.587785 0.000000 0.809017
vn 0.587785 0.000000 0.809017
vn 0.951051 0.000000 0.309033
vn 0.951051 0.000000 0.309033
vn 0.951051 0.000000 0.309033
vn 0.951051 0.000000 0.309033
vn 0.951051 0.000000 -0.309033
vn 0.951051 0.000000 -0.309033
vn 0.951051 0.000000 -0.309033
vn 0.951051 0.000000 -0.309033
vn 0.587785 0.000000 -0.809017
vn 0.587785 0.000000 -0.809017
vn 0.587785 0.000000 -0.809017
vn 0.587785 0.000000 -0.809017
vn 0.000000 0.000000 -1.000000
vn 0.000000 0.000000 -1.000000
vn 0.000000 0.000000 -1.000000
vn 0.000000 0.000000 -1.000000
vn -0.587779 0.000000 -0.809021
vn -0.587779 0.000000 -0.809021
vn -0.587779 0.000000 -0.809021
vn -0.587779 0.000000 -0.809021
vn -0.951057 0.000000 -0.309017
vn -0.951057 0.000000 -0.309017
vn -0.951057 0.000000 -0.309017
vn -0.951057 0.000000 -0.309017
vn -0.951057 0.000000 0.309017
vn -0.951057 0.000000 0.309017
vn -0.951057 0.000000 0.309017
vn -0.951057 0.000000 0.309017
vn -0.587779 0.000000 0.809021
vn -0.587779 0.000000 0.809021
vn -0.587779 0.000000 0.809021
vn -0.587779 0.000000 0.809021
vn 0.000000 0.000000 1.000000
vn 0.000000 0.000000 1.000000
vn 0.000000 0.000000 1.000000
vn 0.000000 0.000000 1.000000
vn 0.587785 0.000000 0.809017
vn 0.587785 0.000000 0.809017
vn 0.587785 0.000000 0.809017
vn 0.587785 0.000000 0.809017
vn 0.951051 0.000000 0.309033
vn 0.951051 0.000000 0.309033
vn 0.951051 0.000000 0.309033
vn 0.951051 0.000000 0.309033
vn 0.951051 0.000000 -0.309033
vn 0.951051 0.000000 -0.309033
vn 0.951051 0.000000 -0.309033
vn 0.951051 0.000000 -0.309033
vn -0.951057 0.000024 -0.309015
vn -0.951057 0.000024 -0.309015
vn -0.951057 0.000024 -0.309015
vn -0.951057 0.000024 -0.309015
vn -0.951049 0.000000 -0.309040
vn -0.951049 0.000000 -0.309040
vn -0.951049 0.000000 -0.309040
vn -0.951049 0.000000 -0.309040
vn -0.951057 -0.000024 -0.309016
vn -0.951057 -0.000024 -0.309016
vn -0.951057 -0.000024 -0.309016
vn -0.951057 -0.000024 -0.309016
vn -0.951060 0.000000 -0.309006
vn -0.951060 0.000000 -0.309006
vn -0.951060 0.000000 -0.309006
vn -0.951060 0.000000 -0.309006
vn -0.100864 -0.994221 -0.036765
vn -0.100864 -0.994221 -0.036765
vn -0.100864 -0.994221 -0.036765
vn -0.100864 -0.994221 -0.036765
vn -0.623072 0.000000 0.782164
vn -0.623072 0.000000 0.782164
vn -0.623072 0.000000 0.782164
vn -0.623072 0.000000 0.782164
vn -0.100864 0.994221 -0.036765
vn -0.100864 0.994221 -0.036765
vn -0.100864 0.994221 -0.036765
vn -0.100864 0.994221 -0.036765
vn 0.301457 0.000000 -0.953480
vn 0.301457 0.000000 -0.953480
vn 0.301457 0.000000 -0.953480
vn 0.301457 0.000000 -0.953480
vn 0.587786 0.000000 -0.809017
vn 0.587786 0.000000 -0.809017
vn 0.587786 0.000000 -0.809017
vn 0.587786 0.000000 -0.809017
vn 0.000000 0.000000 -1.000000
vn 0.000000 0.000000 -1.000000
vn 0.000000 0.000000 -1.000000
vn 0.000000 0.000000 -1.000000
vn -0.587779 0.000000 -0.809021
vn -0.587779 0.000000 -0.809021
vn -0.587779 0.000000 -0.809021
vn -0.587779 0.000000 -0.809021
vn -0.951057 0.000000 -0.309017
vn -0.951057 0.000000 -0.309017
vn -0.951057 0.000000 -0.309017
vn -0.951057 0.000000 -0.309017
vn -0.951057 0.000000 0.309017
vn -0.951057 0.000000 0.309017
vn -0.951057 0.000000 0.309017
vn -0.951057 0.000000 0.309017
vn -0.587779 0.000000 0.809021
vn -0.587779 0.000000 0.809021
vn -0.587779 0.000000 0.809021
vn -0.587779 0.000000 0.809021
vn 0.000000 0.000000 1.000000
vn 0.000000 0.000000 1.000000
vn 0.000000 0.000000 1.000000
vn 0.000000 0.000000 1.000000
vn 0.587785 0.000000 0.809017
vn 0.587785 0.000000 0.809017
vn 0.587785 0.000000 0.809017
vn 0.587785 0.000000 0.809017
vn 0.951051 0.000000 0.309033
vn 0.951051 0.000000 0.309033
vn 0.951051 0.000000 0.309033
vn 0.951051 0.000000 0.309033
vn 0.951051 0.000000 -0.309033
vn 0.951051 0.000000 -0.309033
vn 0.951051 0.000000 -0.309033
vn 0.951051 0.000000 -0.309033
vn 0.587785 0.000000 -0.809017
vn 0.587785 0.000000 -0.809017
vn 0.587785 0.000000 -0.809017
vn 0.587785 0.000000 -0.809017
vn 0.000000 0.000000 -1.000000
vn 0.000000 0.000000 -1.000000
vn 0.000000 0.000000 -1.000000
vn 0.000000 0.000000 -1.000000
vn -0.587779 0.000000 -0.809021
vn -0.587779 0.000000 -0.809021
vn -0.587779 0.000000 -0.809021
vn -0.587779 0.000000 -0.809021
vn -0.951057 0.000000 -0.309017
vn -0.951057 0.000000 -0.309017
vn -0.951057 0.000000 -0.309017
vn -0.951057 0.000000 -0.309017
vn -0.951057 0.000000 0.309017
vn -0.951057 0.000000 0.309017
vn -0.951057 0.000000 0.309017
vn -0.951057 0.000000 0.309017
vn -0.587779 0.000000 0.809021
vn -0.587779 0.000000 0.809021
vn -0.587779 0.000000 0.809021
vn -0.587779 0.000000 0.809021
vn 0.000000 0.000000 1.000000
vn 0.000000 0.000000 1.000000
vn 0.000000 0.000000 1.000000
vn 0.000000 0.000000 1.000000
vn 0.587785 0.000000 0.809017
vn 0.587785 0.000000 0.809017
vn 0.587785 0.000000 0.809017
vn 0.587785 0.000000 0.809017
vn 0.951051 0.000000 0.309033
vn 0.951051 0.000000 0.309033
vn 0.951051 0.000000 0.309033
vn 0.951051 0.000000 0.309033
vn 0.951051 0.000000 -0.309033
vn 0.951051 0.000000 -0.309033
vn 0.951051 0.000000 -0.309033
vn 0.951051 0.000000 -0.309033
vn 0.417719 -0.703529 -0.574941
vn 0.417719 -0.703529 -0.574941
vn 0.417719 -0.703529 -0.574941
vn 0.417719 -0.703529 -0.574941
vn -0.349595 0.000000 -0.936901
vn -0.349595 0.000000 -0.936901
vn -0.349595 0.000000 -0.936901
vn -0.349595 0.000000 -0.936901
vn 0.417720 0.703529 -0.574941
vn 0.417720 0.703529 -0.574942
vn 0.417720 0.703529 -0.574941
vn 0.417720 0.703529 -0.574941
vn 0.965197 0.000000 -0.261524
vn 0.965197 0.000000 -0.261524
vn 0.965197 0.000000 -0.261524
vn 0.965197 0.000000 -0.261524
vn 0.258565 -0.898048 -0.355884
vn 0.258565 -0.898048 -0.355884
vn 0.258565 -0.898048 -0.355884
vn 0.258565 -0.898048 -0.355884
vn -0.824429 0.000000 -0.565966
vn -0.824429 0.000000 -0.565966
vn -0.824429 0.000000 -0.565966
vn -0.824429 0.000000 -0.565966
vn 0.258565 0.898048 -0.355885
vn 0.258565 0.898048 -0.355885
vn 0.258565 0.898048 -0.355885
vn 0.258565 0.898048 -0.355885
vn 0.991346 0.000000 -0.131274
vn 0.991346 0.000000 -0.131274
vn 0.991346 0.000000 -0.131274
vn 0.991346 0.000000 -0.131274
s off
g log_pickup_pCylinder5
usemtl initialShadingGroup
f 43/1/1 44/2/2 12/3/3 11/4/4
f 44/2/5 45/5/6 13/6/7 12/3/8
f 45/5/9 46/7/10 14/8/11 13/6/12
f 46/7/13 47/9/14 15/10/15 14/8/16
f 47/9/17 48/11/18 16/12/19 15/10/20
f 48/11/21 49/13/22 17/14/23 16/12/24
f 49/13/25 50/15/26 18/16/27 17/14/28
f 50/15/29 51/17/30 19/18/31 18/16/32
f 51/17/33 52/19/34 20/20/35 19/18/36
f 52/19/37 43/21/38 11/22/39 20/20/40
f 22/23/41 21/24/42 23/25/43
f 24/26/44 22/23/45 23/25/46
f 25/27/47 24/26/48 23/25/49
f 26/28/50 25/27/51 23/25/52
f 27/29/53 26/28/54 23/25/55
f 28/30/56 27/29/57 23/25/58
f 29/31/59 28/30/60 23/25/61
f 30/32/62 29/31/63 23/25/64
f 31/33/65 30/32/66 23/25/67
f 21/24/68 31/33/69 23/25/70
f 32/34/71 33/35/72 34/36/73
f 33/35/74 35/37/75 34/36/76
f 35/37/77 36/38/78 34/36/79
f 36/38/80 37/39/81 34/36/82
f 37/39/83 38/40/84 34/36/85
f 38/40/86 39/41/87 34/36/88
f 39/41/89 40/42/90 34/36/91
f 40/42/92 41/43/93 34/36/94
f 41/43/95 42/44/96 34/36/97
f 42/44/98 32/34/99 34/36/100
f 2/45/101 1/46/102 21/24/103 22/23/104
f 3/47/105 2/45/106 22/23/107 24/26/108
f 4/48/109 3/47/110 24/26/111 25/27/112
f 5/49/113 4/48/114 25/27/115 26/28/116
f 6/50/117 5/49/118 26/28/119 27/29/120
f 7/51/121 6/50/122 27/29/123 28/30/124
f 8/52/125 7/51/126 28/30/127 29/31/128
f 9/53/129 8/52/130 29/31/131 30/32/132
f 10/54/133 9/53/134 30/32/135 31/33/136
f 1/46/137 10/54/138 31/33/139 21/24/140
f 11/55/141 12/56/142 33/35/143 32/34/144
f 12/56/145 13/57/146 35/37/147 33/35/148
f 13/57/149 14/58/150 36/38/151 35/37/152
f 14/58/153 15/59/154 37/39/155 36/38/156
f 15/59/157 16/60/158 38/40/159 37/39/160
f 16/60/161 17/61/162 39/41/163 38/40/164
f 17/61/165 18/62/166 40/42/167 39/41/168
f 18/62/169 19/63/170 41/43/171 40/42/172
f 19/63/173 20/64/174 42/44/175 41/43/176
f 20/64/177 11/55/178 32/34/179 42/44/180
f 53/65/181 54/66/182 44/2/183 43/1/184
f 54/66/185 55/67/186 45/5/187 44/2/188
f 55/67/189 56/68/190 46/7/191 45/5/192
f 67/69/193 68/70/194 69/71/195 70/72/196
f 57/73/197 58/74/198 48/11/199 47/9/200
f 58/74/201 59/75/202 49/13/203 48/11/204
f 59/75/205 60/76/206 50/15/207 49/13/208
f 60/76/209 61/77/210 51/17/211 50/15/212
f 61/77/213 62/78/214 52/19/215 51/17/216
f 62/78/217 53/79/218 43/21/219 52/19/220
f 71/80/221 72/81/222 54/66/223 53/65/224
f 72/81/225 73/82/226 55/67/227 54/66/228
f 73/82/229 74/83/230 56/68/231 55/67/232
f 74/83/233 75/84/234 57/73/235 56/68/236
f 75/84/237 76/85/238 58/74/239 57/73/240
f 76/85/241 77/86/242 59/75/243 58/74/244
f 77/86/245 78/87/246 60/76/247 59/75/248
f 78/87/249 79/88/250 61/77/251 60/76/252
f 79/88/253 80/89/254 62/78/255 61/77/256
f 80/89/257 71/90/258 53/79/259 62/78/260
f 56/68/261 57/73/262 64/91/263 63/92/264
f 57/73/265 47/9/266 65/93/267 64/91/268
f 47/9/269 46/7/270 66/94/271 65/93/272
f 46/7/273 56/68/274 63/92/275 66/94/276
f 63/92/277 64/91/278 68/70/279 67/69/280
f 64/91/281 65/93/282 69/71/283 68/70/284
f 65/93/285 66/94/286 70/72/287 69/71/288
f 66/94/289 63/92/290 67/69/291 70/72/292
f 95/95/293 96/96/294 97/97/295 98/98/296
f 82/99/297 83/100/298 73/82/299 72/81/300
f 83/100/301 84/101/302 74/83/303 73/82/304
f 84/101/305 85/102/306 75/84/307 74/83/308
f 85/102/309 86/103/310 76/85/311 75/84/312
f 86/103/313 87/104/314 77/86/315 76/85/316
f 87/104/317 88/105/318 78/87/319 77/86/320
f 88/105/321 89/106/322 79/88/323 78/87/324
f 89/106/325 90/107/326 80/89/327 79/88/328
f 90/107/329 81/108/330 71/90/331 80/89/332
f 1/109/333 2/110/334 82/99/335 81/111/336
f 2/110/337 3/112/338 83/100/339 82/99/340
f 3/112/341 4/113/342 84/101/343 83/100/344
f 4/113/345 5/114/346 85/102/347 84/101/348
f 5/114/349 6/115/350 86/103/351 85/102/352
f 6/115/353 7/116/354 87/104/355 86/103/356
f 7/116/357 8/117/358 88/105/359 87/104/360
f 8/117/361 9/118/362 89/106/363 88/105/364
f 9/118/365 10/119/366 90/107/367 89/106/368
f 10/119/369 1/120/370 81/108/371 90/107/372
f 81/111/373 82/99/374 92/121/375 91/122/376
f 82/99/377 72/81/378 93/123/379 92/121/380
f 72/81/381 71/80/382 94/124/383 93/123/384
f 71/80/385 81/111/386 91/122/387 94/124/388
f 91/122/389 92/121/390 96/96/391 95/95/392
f 92/121/393 93/123/394 97/97/395 96/96/396
f 93/123/397 94/124/398 98/98/399 97/97/400
f 94/124/401 91/122/402 95/95/403 98/98/404
